<?xml version="1.0" encoding="UTF-8" standalone="no"?>
<!DOCTYPE svg PUBLIC "-//W3C//DTD SVG 1.1//EN"
 "http://www.w3.org/Graphics/SVG/1.1/DTD/svg11.dtd">
<!-- Generated by graphviz version 2.38.0 (20140413.2041)
 -->
<!-- Title: scope_graph Pages: 1 -->
<svg width="388pt" height="44pt"
 viewBox="0.00 0.00 388.00 44.00" xmlns="http://www.w3.org/2000/svg" xmlns:xlink="http://www.w3.org/1999/xlink">
<g id="graph0" class="graph" transform="scale(1 1) rotate(0) translate(4 40)">
<title>scope_graph</title>
<polygon fill="white" stroke="none" points="-4,4 -4,-40 384,-40 384,4 -4,4"/>
<!-- #&#45;scope&#45;1 -->
<g id="node1" class="node"><title>#&#45;scope&#45;1</title>
<ellipse fill="none" stroke="black" cx="190" cy="-18" rx="48.1917" ry="18"/>
<text text-anchor="middle" x="190" y="-14.3" font-family="Times New Roman,serif" font-size="14.00">#&#45;scope&#45;1</text>
</g>
<!-- Variable{&quot;X&quot; @:1} -->
<g id="node2" class="node"><title>Variable{&quot;X&quot; @:1}</title>
<polygon fill="none" stroke="black" points="380,-36 256,-36 256,-0 380,-0 380,-36"/>
<text text-anchor="middle" x="318" y="-14.3" font-family="Times New Roman,serif" font-size="14.00">Variable{&quot;X&quot; @:1}</text>
</g>
<!-- #&#45;scope&#45;1&#45;&gt;Variable{&quot;X&quot; @:1} -->
<g id="edge1" class="edge"><title>#&#45;scope&#45;1&#45;&gt;Variable{&quot;X&quot; @:1}</title>
<path fill="none" stroke="black" d="M238.5,-18C240.946,-18 243.391,-18 245.837,-18"/>
<polygon fill="black" stroke="black" points="245.891,-21.5001 255.891,-18 245.891,-14.5001 245.891,-21.5001"/>
</g>
<!-- Variable{&quot;X&quot; @:3} -->
<g id="node3" class="node"><title>Variable{&quot;X&quot; @:3}</title>
<polygon fill="none" stroke="black" points="124,-36 0,-36 0,-0 124,-0 124,-36"/>
<text text-anchor="middle" x="62" y="-14.3" font-family="Times New Roman,serif" font-size="14.00">Variable{&quot;X&quot; @:3}</text>
</g>
<!-- Variable{&quot;X&quot; @:3}&#45;&gt;#&#45;scope&#45;1 -->
<g id="edge2" class="edge"><title>Variable{&quot;X&quot; @:3}&#45;&gt;#&#45;scope&#45;1</title>
<path fill="none" stroke="black" d="M124.5,-18C126.947,-18 129.393,-18 131.84,-18"/>
<polygon fill="black" stroke="black" points="131.898,-21.5001 141.898,-18 131.898,-14.5001 131.898,-21.5001"/>
</g>
</g>
</svg>
